Coordinates
version=1
nRows=17
nColumns=27
inDegrees=yes

Units are S.I. units (second, meters, Newtons, ...)
If the header above contains a line with 'inDegrees', this indicates whether rotational values are in degrees (yes) or radians (no).

endheader
time	pelvis_rotation	pelvis_tilt	pelvis_list	pelvis_tx	pelvis_ty	pelvis_tz	hip_flexion_r	hip_adduction_r	hip_rotation_r	knee_angle_r	knee_rotation_r	knee_adduction_r	knee_angle_r_beta	ankle_angle_r	subtalar_angle_r	mtp_angle_r	hip_flexion_l	hip_adduction_l	hip_rotation_l	knee_angle_l	knee_rotation_l	knee_adduction_l	knee_angle_l_beta	ankle_angle_l	subtalar_angle_l	mtp_angle_l
      5.24500000	     12.13047818	    -28.25871953	      5.88587199	     -0.03944621	      0.66106876	     -1.18582411	     87.94044810	    -44.84227581	      0.31519561	     77.61874506	      0.00000000	      9.43280108	      1.35470266	     10.56661849	      0.00000000	      0.00000000	     88.20164381	    -17.34518284	      5.20481384	     71.25360664	      0.00000000	     -9.84001905	      1.24361004	      8.07297303	      0.00000000	      0.00000000
      5.25000000	     12.16234233	    -28.25339300	      5.71982008	     -0.03895790	      0.66141756	     -1.18576019	     87.59939203	    -44.87427693	     -0.05494127	     77.54244647	      0.00000000	      9.43597895	      1.35337100	     10.59420230	      0.00000000	      0.00000000	     88.21567139	    -17.33745674	      5.38709111	     71.23427047	      0.00000000	     -9.84033088	      1.24327256	      8.08854137	      0.00000000	      0.00000000
      5.25500000	     12.16988491	    -28.22380693	      5.63795675	     -0.03851617	      0.66174599	     -1.18571207	     87.35961233	    -44.88873137	     -0.27184140	     77.47605742	      0.00000000	      9.44052860	      1.35221229	     10.62774005	      0.00000000	      0.00000000	     88.16270071	    -17.35804806	      5.44632397	     71.20212931	      0.00000000	     -9.84071712	      1.24271159	      8.07482302	      0.00000000	      0.00000000
      5.26000000	     12.16193913	    -28.17610395	      5.64486094	     -0.03810147	      0.66205768	     -1.18566985	     87.23183782	    -44.88579483	     -0.31123310	     77.43465837	      0.00000000	      9.44242830	      1.35148974	     10.64119861	      0.00000000	      0.00000000	     88.03795651	    -17.38620048	      5.39715946	     71.14828197	      0.00000000	     -9.84137272	      1.24177178	      8.08361428	      0.00000000	      0.00000000
      5.26500000	     12.19751658	    -28.13666081	      5.59914603	     -0.03768183	      0.66238186	     -1.18565213	     87.02295552	    -44.93329772	     -0.48518186	     77.38198292	      0.00000000	      9.44735790	      1.35057038	     10.63778460	      0.00000000	      0.00000000	     87.96282034	    -17.37113699	      5.43866409	     71.10737557	      0.00000000	     -9.84145690	      1.24105783	      8.09427235	      0.00000000	      0.00000000
      5.27000000	     12.21357210	    -28.10614035	      5.61460087	     -0.03730281	      0.66267272	     -1.18560764	     86.91867322	    -44.95771388	     -0.53270874	     77.34756934	      0.00000000	      9.44960493	      1.34996975	     10.65575496	      0.00000000	      0.00000000	     87.86443248	    -17.37937074	      5.39580326	     71.05529575	      0.00000000	     -9.84229393	      1.24014886	      8.10249603	      0.00000000	      0.00000000
      5.27500000	     11.97101457	    -27.95752412	      5.46809756	     -0.03711784	      0.66318665	     -1.18537415	     86.58102629	    -44.59827899	     -0.53048139	     77.20144137	      0.00000000	      9.08098120	      1.34741934	     10.59103198	      0.00000000	      0.00000000	     87.59660143	    -17.59615625	      5.42380534	     70.93670719	      0.00000000	     -9.70625204	      1.23807910	      8.10856001	      0.00000000	      0.00000000
      5.28000000	     12.27647790	    -27.93681770	      5.68859013	     -0.03648490	      0.66323587	     -1.18560044	     86.63656368	    -45.07601485	     -0.60509769	     77.28359019	      0.00000000	      9.46228933	      1.34885311	     10.64338360	      0.00000000	      0.00000000	     87.53895165	    -17.34954458	      5.27310794	     70.93998541	      0.00000000	     -9.84314115	      1.23813632	      8.13360961	      0.00000000	      0.00000000
      5.28500000	     11.99712043	    -27.82605710	      5.47966042	     -0.03630910	      0.66378950	     -1.18533148	     86.26709652	    -44.66875543	     -0.68317185	     77.11431082	      0.00000000	      9.09031866	      1.34589862	     10.60570165	      0.00000000	      0.00000000	     87.32991506	    -17.61898458	      5.33904051	     70.83401394	      0.00000000	     -9.70772350	      1.23628677	      8.13012315	      0.00000000	      0.00000000
      5.29000000	     12.20222784	    -27.98714116	      5.39947060	     -0.03584304	      0.66388175	     -1.18544471	     86.18081895	    -44.96139988	     -1.12468597	     77.12885159	      0.00000000	      9.46544244	      1.34615241	     10.66899014	      0.00000000	      0.00000000	     87.60265731	    -17.49063098	      5.48930264	     70.90458969	      0.00000000	     -9.84482309	      1.23751854	      8.11091877	      0.00000000	      0.00000000
      5.29500000	     11.82367177	    -27.89071994	      5.30728748	     -0.03573598	      0.66434447	     -1.18516921	     86.06636946	    -44.45454252	     -0.88606073	     77.01476747	      0.00000000	      9.08713219	      1.34416127	     10.60672184	      0.00000000	      0.00000000	     87.34328252	    -17.85301473	      5.37039805	     70.80285605	      0.00000000	     -9.71129594	      1.23574296	      8.07150530	      0.00000000	      0.00000000
      5.30000000	     12.30662424	    -27.74758324	      5.74011612	     -0.03503585	      0.66445920	     -1.18548264	     86.13763648	    -45.15562793	     -0.81846761	     77.10986485	      0.00000000	      9.47208927	      1.34582103	     10.71340114	      0.00000000	      0.00000000	     87.07071013	    -17.40188345	      5.07449634	     70.71862394	      0.00000000	     -9.84483369	      1.23427283	      8.12278219	      0.00000000	      0.00000000
      5.30500000	     11.93178244	    -27.72168127	      5.45872908	     -0.03493643	      0.66487606	     -1.18519994	     85.86242176	    -44.63951965	     -0.88841165	     76.96229594	      0.00000000	      9.10590212	      1.34324546	     10.62483987	      0.00000000	      0.00000000	     86.99086847	    -17.77436808	      5.18424327	     70.67269180	      0.00000000	     -9.71245264	      1.23347116	      8.12427063	      0.00000000	      0.00000000
      5.31000000	     12.25196966	    -27.72628588	      5.59755033	     -0.03435507	      0.66501985	     -1.18539059	     85.80481213	    -45.10398153	     -1.11912783	     77.00194503	      0.00000000	      9.48005248	      1.34393747	     10.70062282	      0.00000000	      0.00000000	     86.99138849	    -17.50497761	      5.14533073	     70.66306742	      0.00000000	     -9.84630860	      1.23330319	      8.13322634	      0.00000000	      0.00000000
      5.31500000	     11.89266465	    -27.61470016	      5.38246122	     -0.03425231	      0.66544637	     -1.18514516	     85.51209138	    -44.62118775	     -1.10588796	     76.85691830	      0.00000000	      9.11468948	      1.34140628	     10.61461580	      0.00000000	      0.00000000	     86.79142109	    -17.84705550	      5.18361599	     70.59762425	      0.00000000	     -9.71453431	      1.23216099	      8.13238371	      0.00000000	      0.00000000
      5.32000000	     12.25508501	    -27.60625676	      5.58367702	     -0.03361342	      0.66561366	     -1.18537312	     85.48513785	    -45.15283859	     -1.29865680	     76.90584920	      0.00000000	      9.48584212	      1.34226028	     10.68403587	      0.00000000	      0.00000000	     86.74505155	    -17.51584820	      5.11581926	     70.56430165	      0.00000000	     -9.84694219	      1.23157940	      8.14047221	      0.00000000	      0.00000000
      5.32500000	     11.88510744	    -27.53373443	      5.37173722	     -0.03352556	      0.66600652	     -1.18512097	     85.25966719	    -44.65384331	     -1.25571934	     76.77480686	      0.00000000	      9.12902928	      1.33997316	     10.61350019	      0.00000000	      0.00000000	     86.58814883	    -17.87618718	      5.13968153	     70.50746326	      0.00000000	     -9.71567954	      1.23058738	      8.14778465	      0.00000000	      0.00000000
